<svg width="46" height="45" viewBox="0 0 46 45" fill="none" xmlns="http://www.w3.org/2000/svg">
<g clip-path="url(#clip0_139_3911)">
<path d="M40.2499 39.375H5.74992C5.24159 39.375 4.75408 39.1775 4.39463 38.8258C4.03519 38.4742 3.83325 37.9973 3.83325 37.5V23.4131C3.83322 23.1452 3.89188 22.8804 4.00529 22.6365C4.11869 22.3927 4.2842 22.1754 4.49067 21.9994L11.4999 16.02V7.5C11.4999 7.00272 11.7019 6.52581 12.0613 6.17417C12.4207 5.82254 12.9083 5.625 13.4166 5.625H40.2499C40.7583 5.625 41.2458 5.82254 41.6052 6.17417C41.9647 6.52581 42.1666 7.00272 42.1666 7.5V37.5C42.1666 37.9973 41.9647 38.4742 41.6052 38.8258C41.2458 39.1775 40.7583 39.375 40.2499 39.375ZM17.2499 35.625H22.9999V24.2663L15.3333 17.7263L7.66659 24.2663V35.625H13.4166V28.125H17.2499V35.625ZM26.8333 35.625H38.3333V9.375H15.3333V13.3631C15.7818 13.3631 16.2322 13.5169 16.5925 13.8263L26.1758 21.9994C26.3823 22.1754 26.5478 22.3927 26.6612 22.6365C26.7746 22.8804 26.8333 23.1452 26.8333 23.4131V35.625ZM30.6666 20.625H34.4999V24.375H30.6666V20.625ZM30.6666 28.125H34.4999V31.875H30.6666V28.125ZM30.6666 13.125H34.4999V16.875H30.6666V13.125ZM22.9999 13.125H26.8333V16.875H22.9999V13.125Z" fill="#4561EC"/>
</g>
<defs>
<clipPath id="clip0_139_3911">
<rect width="46" height="45" fill="white"/>
</clipPath>
</defs>
</svg>
