<svg width="45" height="45" viewBox="0 0 45 45" fill="none" xmlns="http://www.w3.org/2000/svg">
<g clip-path="url(#clip0_139_3914)">
<path d="M22.5 3.75C32.8556 3.75 41.25 12.1444 41.25 22.5C41.25 32.8556 32.8556 41.25 22.5 41.25C12.1444 41.25 3.75 32.8556 3.75 22.5C3.75 12.1444 12.1444 3.75 22.5 3.75ZM22.5 7.5C18.5218 7.5 14.7064 9.08035 11.8934 11.8934C9.08035 14.7064 7.5 18.5218 7.5 22.5C7.5 26.4782 9.08035 30.2936 11.8934 33.1066C14.7064 35.9196 18.5218 37.5 22.5 37.5C26.4782 37.5 30.2936 35.9196 33.1066 33.1066C35.9196 30.2936 37.5 26.4782 37.5 22.5C37.5 18.5218 35.9196 14.7064 33.1066 11.8934C30.2936 9.08035 26.4782 7.5 22.5 7.5ZM22.5 13.125C24.4736 13.1257 26.3966 13.7493 27.9951 14.9069C29.5936 16.0644 30.786 17.697 31.4024 19.5718C32.0189 21.4467 32.0279 23.4683 31.4282 25.3485C30.8285 27.2288 29.6508 28.8719 28.0627 30.0437C26.4746 31.2155 24.5572 31.8562 22.5837 31.8746C20.6102 31.893 18.6812 31.2881 17.0716 30.146C15.462 29.004 14.2538 27.3831 13.6193 25.5143C12.9847 23.6455 12.9561 21.6241 13.5375 19.7381C13.9761 20.7182 14.738 21.5179 15.6957 22.0034C16.6534 22.4889 17.7489 22.6308 18.7987 22.4052C19.8484 22.1797 20.7889 21.6004 21.4627 20.7644C22.1365 19.9283 22.5027 18.8862 22.5 17.8125C22.5002 16.9096 22.2397 16.0259 21.7498 15.2675C21.2598 14.5091 20.5613 13.9084 19.7381 13.5375C20.6119 13.2694 21.5381 13.125 22.5 13.125Z" fill="#4561EC"/>
</g>
<defs>
<clipPath id="clip0_139_3914">
<rect width="45" height="45" fill="white"/>
</clipPath>
</defs>
</svg>
