<svg width="45" height="45" viewBox="0 0 45 45" fill="none" xmlns="http://www.w3.org/2000/svg">
<g clip-path="url(#clip0_139_3917)">
<path d="M9.375 8.6325V25.8544C9.37502 27.089 9.67983 28.3045 10.2624 29.393C10.8449 30.4816 11.6872 31.4095 12.7144 32.0944L22.5 38.6194L32.2856 32.0944C33.3126 31.4097 34.1547 30.4821 34.7372 29.3939C35.3197 28.3057 35.6247 27.0905 35.625 25.8563V8.6325L22.5 5.71875L9.375 8.6325ZM7.09312 5.29875L22.5 1.875L37.9069 5.29875C38.3232 5.39131 38.6956 5.62306 38.9625 5.95576C39.2294 6.28846 39.3749 6.70222 39.375 7.12875V25.8544C39.3749 27.7064 38.9175 29.5297 38.0435 31.1625C37.1696 32.7953 35.906 34.1871 34.365 35.2144L22.5 43.125L10.635 35.2144C9.09426 34.1873 7.83086 32.7958 6.9569 31.1633C6.08294 29.5309 5.62544 27.7079 5.625 25.8563V7.12875C5.62507 6.70222 5.77057 6.28846 6.03748 5.95576C6.30439 5.62306 6.67676 5.39131 7.09312 5.29875ZM22.5 25.3125L16.9894 28.2094L18.0412 22.0744L13.5844 17.7281L19.7456 16.8319L22.5 11.25L25.2563 16.8319L31.4156 17.7281L26.9587 22.0744L28.0087 28.2094L22.5 25.3125Z" fill="#4561EC"/>
</g>
<defs>
<clipPath id="clip0_139_3917">
<rect width="45" height="45" fill="white"/>
</clipPath>
</defs>
</svg>
