<svg width="45" height="45" viewBox="0 0 45 45" fill="none" xmlns="http://www.w3.org/2000/svg">
<g clip-path="url(#clip0_139_3920)">
<path d="M37.6557 28.4999L39.9095 29.8518C40.0485 29.935 40.1636 30.0529 40.2435 30.1939C40.3234 30.3348 40.3654 30.4941 40.3654 30.6562C40.3654 30.8182 40.3234 30.9775 40.2435 31.1185C40.1636 31.2595 40.0485 31.3773 39.9095 31.4605L23.4657 41.3268C23.1741 41.502 22.8403 41.5946 22.5001 41.5946C22.1599 41.5946 21.8261 41.502 21.5345 41.3268L5.09072 31.4605C4.95168 31.3773 4.83659 31.2595 4.75668 31.1185C4.67677 30.9775 4.63477 30.8182 4.63477 30.6562C4.63477 30.4941 4.67677 30.3348 4.75668 30.1939C4.83659 30.0529 4.95168 29.935 5.09072 29.8518L7.34447 28.4999L22.5001 37.5937L37.6557 28.4999ZM37.6557 19.6874L39.9095 21.0393C40.0485 21.1225 40.1636 21.2404 40.2435 21.3814C40.3234 21.5223 40.3654 21.6816 40.3654 21.8437C40.3654 22.0057 40.3234 22.165 40.2435 22.306C40.1636 22.447 40.0485 22.5648 39.9095 22.648L22.5001 33.0937L5.09072 22.648C4.95168 22.5648 4.83659 22.447 4.75668 22.306C4.67677 22.165 4.63477 22.0057 4.63477 21.8437C4.63477 21.6816 4.67677 21.5223 4.75668 21.3814C4.83659 21.2404 4.95168 21.1225 5.09072 21.0393L7.34447 19.6874L22.5001 28.7812L37.6557 19.6874ZM23.4638 2.45429L39.9095 12.3205C40.0485 12.4038 40.1636 12.5216 40.2435 12.6626C40.3234 12.8036 40.3654 12.9629 40.3654 13.1249C40.3654 13.287 40.3234 13.4462 40.2435 13.5872C40.1636 13.7282 40.0485 13.8461 39.9095 13.9293L22.5001 24.3749L5.09072 13.9293C4.95168 13.8461 4.83659 13.7282 4.75668 13.5872C4.67677 13.4462 4.63477 13.287 4.63477 13.1249C4.63477 12.9629 4.67677 12.8036 4.75668 12.6626C4.83659 12.5216 4.95168 12.4038 5.09072 12.3205L21.5345 2.45429C21.8261 2.27909 22.1599 2.18652 22.5001 2.18652C22.8403 2.18652 23.1741 2.27909 23.4657 2.45429H23.4638ZM22.5001 6.24742L11.0382 13.1249L22.5001 20.0024L33.962 13.1249L22.5001 6.24742Z" fill="#4561EC"/>
</g>
<defs>
<clipPath id="clip0_139_3920">
<rect width="45" height="45" fill="white"/>
</clipPath>
</defs>
</svg>
